<?xml version="1.0" standalone="no"?>
<!DOCTYPE svg PUBLIC "-//W3C//DTD SVG 20010904//EN"
 "http://www.w3.org/TR/2001/REC-SVG-20010904/DTD/svg10.dtd">
<svg version="1.0" xmlns="http://www.w3.org/2000/svg"
 width="928.000000pt" height="191.000000pt" viewBox="0 0 928.000000 191.000000"
 preserveAspectRatio="xMidYMid meet">

<g transform="translate(0.000000,191.000000) scale(0.100000,-0.100000)"
fill="#000000" stroke="none">
<path d="M905 1739 c-345 -35 -626 -277 -716 -614 -27 -103 -29 -277 -4 -384
113 -481 601 -761 1057 -605 285 97 491 328 553 619 21 102 19 262 -5 365 -78
327 -376 591 -694 616 -39 3 -82 6 -96 8 -14 1 -56 -1 -95 -5z m25 -382 l0
-224 -24 -11 c-21 -9 -34 1 -182 149 l-159 160 25 20 c69 54 225 115 333 128
4 1 7 -100 7 -222z m225 201 c87 -19 265 -112 265 -139 0 -3 -71 -75 -159
-158 -157 -150 -159 -151 -190 -140 l-31 11 0 163 c0 89 3 189 6 222 7 67 0
64 109 41z m-511 -375 l148 -153 -13 -30 -14 -30 -217 0 -218 0 0 28 c0 42 25
126 58 195 33 69 89 150 101 145 4 -2 74 -72 155 -155z m946 36 c29 -54 70
-190 70 -231 0 -17 -13 -18 -228 -18 l-228 0 -10 28 c-10 26 -4 33 150 184
l161 157 27 -31 c15 -17 40 -57 58 -89z m-551 -223 c31 -17 51 -54 51 -97 0
-44 -56 -99 -102 -99 -97 0 -141 122 -67 184 34 29 76 33 118 12z m616 -178
c-13 -73 -52 -176 -94 -248 -23 -38 -45 -71 -49 -74 -4 -2 -79 64 -165 147
l-158 152 13 33 12 32 224 0 224 0 -7 -42z m-881 0 l14 -33 -155 -155 -154
-155 -25 30 c-42 52 -94 161 -114 241 -11 43 -20 83 -20 91 0 10 43 13 220 13
l220 0 14 -32z m154 -352 l2 -216 -26 0 c-74 0 -254 70 -319 124 l-30 25 154
154 154 155 31 -13 31 -13 3 -216z m339 92 l154 -153 -33 -28 c-68 -58 -237
-127 -310 -127 l-28 0 0 214 0 215 28 14 c15 8 29 15 31 16 2 1 73 -68 158
-151z"/>
<path d="M2090 1010 l0 -430 80 0 80 0 0 185 c0 102 3 185 8 185 4 0 75 -83
157 -185 l150 -185 98 0 c76 0 96 3 91 13 -5 6 -84 103 -177 214 -111 134
-166 207 -161 215 5 7 79 102 166 211 87 108 158 200 158 202 0 3 -40 5 -89 5
l-89 0 -45 -52 c-24 -29 -90 -113 -146 -185 -57 -73 -107 -133 -112 -133 -5 0
-9 83 -9 185 l0 185 -80 0 -80 0 0 -430z"/>
<path d="M5710 1255 c-80 -101 -148 -185 -152 -185 -5 0 -8 81 -8 180 l0 180
-80 0 -80 0 0 -425 0 -425 80 0 80 0 0 185 c0 102 3 185 8 185 4 0 75 -83 157
-184 l150 -185 103 0 103 -1 -181 216 c-100 118 -179 220 -177 227 3 7 76 100
162 207 86 107 159 198 161 202 3 5 -37 8 -88 8 l-93 0 -145 -185z"/>
<path d="M7310 1010 l0 -430 70 0 70 0 0 30 c0 34 11 38 31 13 39 -46 156 -67
241 -41 56 17 121 78 148 140 41 93 38 274 -6 359 -19 38 -70 87 -115 109 -82
43 -217 19 -268 -46 l-21 -27 0 162 0 161 -75 0 -75 0 0 -430z m375 56 c39
-25 58 -74 63 -158 6 -97 -17 -153 -77 -186 -125 -71 -245 55 -210 219 27 123
135 184 224 125z"/>
<path d="M2885 1191 c-72 -33 -125 -102 -125 -161 0 -18 6 -20 70 -20 52 0 70
3 70 14 0 54 98 93 157 63 41 -21 51 -36 59 -84 l6 -41 -63 -7 c-91 -10 -195
-33 -227 -49 -15 -8 -40 -28 -57 -45 -26 -28 -30 -40 -33 -99 -4 -85 22 -134
88 -170 40 -21 55 -23 128 -20 73 4 88 8 127 36 l44 31 3 -27 c3 -26 5 -27 71
-30 l69 -3 -4 228 c-3 206 -5 232 -24 274 -43 93 -107 129 -234 129 -61 0 -96
-6 -125 -19z m235 -370 c0 -61 -31 -110 -82 -129 -45 -17 -101 -9 -129 19 -28
28 -22 86 11 110 19 15 119 39 193 48 4 1 7 -21 7 -48z"/>
<path d="M3590 1194 c-19 -8 -47 -29 -62 -47 l-27 -32 -1 43 0 42 -70 0 -70 0
0 -310 0 -310 69 0 68 0 5 183 c6 206 16 245 68 272 20 10 50 15 83 14 l50 -3
1 82 1 82 -40 0 c-22 -1 -56 -7 -75 -16z"/>
<path d="M4000 1199 c-14 -6 -37 -22 -52 -36 l-28 -27 -6 32 c-6 32 -7 32 -70
32 l-64 0 0 -310 0 -310 75 0 75 0 0 193 c0 105 5 208 10 228 22 79 109 111
164 60 36 -34 46 -98 46 -301 l0 -180 69 0 68 0 5 208 c5 232 11 256 68 284
29 14 43 16 74 7 30 -8 41 -18 57 -52 16 -37 19 -67 19 -244 l0 -203 76 0 76
0 -4 238 c-3 226 -4 239 -27 285 -34 71 -85 101 -176 105 -81 4 -136 -16 -174
-64 l-21 -26 -27 32 c-15 18 -42 39 -60 46 -37 16 -136 17 -173 3z"/>
<path d="M4875 1190 c-51 -23 -103 -77 -115 -121 -17 -58 -16 -59 58 -59 66 0
68 1 79 30 23 61 130 77 181 27 23 -24 44 -107 26 -107 -5 0 -46 -5 -92 -10
-123 -16 -201 -43 -242 -85 -31 -32 -35 -42 -38 -103 -2 -55 1 -74 20 -106 57
-97 229 -118 334 -40 35 25 44 23 44 -13 0 -22 4 -23 65 -23 l65 0 0 213 c0
288 -16 339 -121 392 -41 21 -62 25 -136 24 -62 0 -100 -6 -128 -19z m235
-374 c0 -66 -31 -109 -91 -127 -48 -15 -113 1 -129 32 -18 32 -8 80 20 100 20
15 100 35 193 48 4 1 7 -23 7 -53z"/>
<path d="M6190 1189 c-24 -11 -53 -28 -63 -37 -27 -24 -57 -86 -57 -117 0 -24
2 -25 65 -25 59 0 66 2 74 23 33 84 171 87 206 3 29 -69 28 -71 -100 -89 -186
-26 -253 -68 -270 -168 -8 -48 9 -110 41 -148 38 -46 99 -65 190 -59 64 4 82
10 120 36 l44 32 0 -30 0 -30 70 0 70 0 0 208 c0 235 -9 288 -63 349 -48 55
-97 73 -197 73 -64 0 -96 -5 -130 -21z m240 -366 c0 -61 -29 -109 -77 -130
-45 -18 -106 -12 -134 13 -29 26 -23 91 11 115 19 15 119 39 193 48 4 1 7 -20
7 -46z"/>
<path d="M6895 1193 c-16 -8 -42 -27 -57 -41 l-28 -26 0 37 0 37 -70 0 -70 0
0 -310 0 -310 75 0 75 0 0 188 c1 239 17 289 97 311 54 15 102 -5 127 -54 19
-36 20 -57 21 -242 l0 -203 77 0 78 0 0 183 c0 100 -5 211 -10 247 -22 134
-95 200 -219 200 -40 -1 -78 -7 -96 -17z"/>
<path d="M8084 1186 c-61 -29 -104 -80 -111 -136 l-6 -40 72 0 c55 0 71 3 71
14 0 8 10 27 23 41 48 56 154 39 183 -30 28 -68 27 -70 -103 -88 -197 -28
-264 -77 -264 -191 0 -114 62 -178 181 -184 76 -5 129 9 177 44 l32 24 3 -27
c3 -27 5 -28 72 -31 l69 -3 -6 223 c-6 239 -12 275 -59 332 -45 55 -100 76
-199 76 -67 0 -94 -5 -135 -24z m244 -371 c-6 -67 -31 -104 -81 -124 -44 -16
-100 -8 -128 20 -28 28 -22 86 11 110 20 14 116 38 194 48 5 1 6 -24 4 -54z"/>
<path d="M8785 1196 c-16 -8 -40 -23 -52 -35 -29 -28 -33 -27 -33 9 l0 30 -65
0 -65 0 0 -310 0 -310 75 0 75 0 0 200 c0 212 6 246 49 284 14 13 36 19 67 19
38 0 51 -5 77 -32 l32 -31 3 -220 3 -220 75 0 74 0 0 210 c0 115 -5 232 -11
260 -13 60 -54 112 -110 141 -45 23 -148 25 -194 5z"/>
</g>
</svg>
